<?xml version="1.0" encoding="utf-8"?>
<!-- Generator: Adobe Illustrator 24.1.3, SVG Export Plug-In . SVG Version: 6.00 Build 0)  -->
<svg version="1.1" xmlns="http://www.w3.org/2000/svg" xmlns:xlink="http://www.w3.org/1999/xlink" x="0px" y="0px"
	 viewBox="0 0 1001.3 900" style="enable-background:new 0 0 1001.3 900;" xml:space="preserve">
<style type="text/css">
	.st0{fill:#0F9BD7;}
	.st1{fill:#0877BE;}
	.st2{fill:#115999;}
	.st3{fill:#FFFFFF;}
	.st4{display:none;}
</style>
<g id="Layer_1">
	<g id="Layer_10_copy_2">
	</g>
</g>
<g id="Layer_1_copy">
	<g id="Layer_10_copy_4">
	</g>
</g>
<g id="Layer_1_copy_2">
	<g id="Layer_10_copy_5">
	</g>
</g>
<g id="Layer_4">
	<g id="Layer_10_copy_3">
		<g>
			<path class="st0" d="M495.3,611.1c0,19.5-5.3,37.7-14.6,53.3c-3.4,5.8-7.4,11.3-12,16.3c-19.1,21.3-46.9,34.8-77.8,34.8
				c-37.6,0-70.6-19.9-89-49.8l-7.1-13.8c0-0.1-0.1-0.1-0.1-0.2l-253-489.6h183.6c32.2,0,60.5,16.7,76.7,41.8
				c2.9,5.9,6,12.3,9.4,19.2c36.5,74.3,105.7,205.6,167.3,331.7c3.6,7.4,7.3,14.9,10.8,22.3C493.3,587.8,495.3,599.3,495.3,611.1z"
				/>
			<path class="st1" d="M795.3,609.9c0,19.7-5.4,38.2-14.8,54c-3.5,5.9-7.5,11.4-12.1,16.5c-19.4,21.6-47.5,35.2-78.8,35.2
				c-38.1,0-71.5-20.2-90.1-50.4c-1.2-2-2.4-4.1-3.5-6.2c-0.2-0.3-0.4-0.7-0.5-1.1L369.8,222.8h184.9c31.8,0,59.8,16.2,76.1,40.9
				l9.1,17.6c0,0,0,0.1,0,0.1c0,0,92.3,182.6,136.9,268.9c4.5,8.8,8.6,16.6,12,23c0,0,0.1,0.1,0.1,0.1c0.2,0.6,0.4,1.1,0.6,1.6
				c0.1,0.2,0.1,0.3,0.2,0.5C793.3,586.2,795.3,597.8,795.3,609.9z"/>
			<path class="st2" d="M959.5,355.9c0,14.4-3.9,27.9-10.8,39.4l-8.8,12l-99,134.9L708,278.8h174.3c26.9,0,50.5,13.7,64.3,34.5
				c0.2,0.3,0.4,0.5,0.5,0.8c2.8,4.4,5.2,9.1,7.2,14c0,0,0,0,0,0c0.3,0.7,0.5,1.5,0.8,2.2C958,338.4,959.5,347,959.5,355.9z"/>
		</g>
	</g>
</g>
<g id="Layer_4_copy_2">
	<g id="Layer_10_copy_7">
	</g>
</g>
<g id="Layer_4_copy">
	<g id="Layer_10_copy_6">
	</g>
</g>
<g id="Layer_12">
</g>
<g id="Layer_3" class="st4">
</g>
</svg>
